<?xml version="1.0" encoding="UTF-8" standalone="no"?>
<svg 
  version="1.1" 
  xmlns="http://www.w3.org/2000/svg" 
  xmlns:xlink="http://www.w3.org/1999/xlink" 
  xmlns:svg="http://www.w3.org/2000/svg"
  xmlns:rdf="http://www.w3.org/1999/02/22-rdf-syntax-ns#"
  xmlns:cc="http://creativecommons.org/ns#"
  xmlns:dc="http://purl.org/dc/elements/1.1/"
  viewBox="0 0 768 768"
  width="768"
  height="768"
>
<style>svg {background-color: white; }</style>"
<metadata id="metadata1">
Created by https://svgstud.io and licensed under CC-BY-SA 4.0 license. Please attribute https://svgstud.io
</metadata>
<metadata id="prompt">
Значок гоночной машинки audi RS7
</metadata>
<metadata id="version">
7
</metadata>
<metadata id="metadata2">
<rdf:RDF>
<cc:Work
    rdf:about="">
    <cc:license
    rdf:resource="http://creativecommons.org/licenses/by-sa/4.0/" />
    <dc:creator>
        <cc:Agent>
            <dc:title>https://svgstud.io</dc:title>
        </cc:Agent>
    </dc:creator>
</cc:Work>
<cc:License
    rdf:about="http://creativecommons.org/licenses/by-sa/4.0/">
    <cc:permits
    rdf:resource="http://creativecommons.org/ns#Reproduction" />
    <cc:permits
    rdf:resource="http://creativecommons.org/ns#Distribution" />
    <cc:requires
    rdf:resource="http://creativecommons.org/ns#Notice" />
    <cc:requires
    rdf:resource="http://creativecommons.org/ns#Attribution" />
    <cc:permits
    rdf:resource="http://creativecommons.org/ns#DerivativeWorks" />
    <cc:requires
    rdf:resource="http://creativecommons.org/ns#ShareAlike" />
</cc:License>
</rdf:RDF>
</metadata>
<metadata id="uid">
402601c98388a4dea3e7c910e99508c41f0efceaab7f59bab1e027b558a51cb5
</metadata>
<path stroke="none" fill="current" fill-rule="evenodd" d="M296.50,581.84C267.90,581.77 238.20,581.35 230.50,580.92C222.80,580.48 206.38,579.41 194.00,578.54C181.62,577.66 158.68,575.81 143.00,574.43C127.32,573.04 106.77,570.80 97.32,569.45C87.87,568.10 76.17,566.08 71.32,564.96C66.47,563.85 60.74,561.93 58.60,560.72C56.45,559.50 54.24,557.78 53.70,556.90C53.15,556.03 53.00,554.12 53.37,552.67C53.81,550.90 55.43,549.31 58.27,547.85C60.59,546.66 64.49,545.17 66.93,544.54C69.37,543.92 71.52,542.93 71.72,542.35C71.91,541.76 69.30,540.74 65.79,540.04C62.33,539.36 57.92,538.33 56.00,537.75C54.08,537.17 50.83,535.64 48.79,534.36C46.75,533.08 44.62,531.15 44.04,530.08C43.32,528.72 43.34,526.67 44.13,523.24C45.03,519.35 44.93,515.89 43.63,506.37C42.73,499.78 42.00,493.42 42.00,492.23C42.00,491.04 43.40,488.48 45.10,486.53C47.48,483.83 48.98,483.00 51.51,483.00C53.32,483.00 61.21,485.06 69.02,487.58C76.84,490.10 83.86,492.39 84.62,492.68C85.41,492.99 86.00,492.58 86.00,491.73C86.00,490.91 83.89,489.36 81.25,488.26C78.64,487.17 70.76,484.30 63.75,481.89C51.01,477.50 51.01,477.50 51.04,472.50C51.05,469.75 51.50,464.14 52.03,460.04C52.56,455.94 53.26,451.77 53.57,450.77C54.11,449.08 54.36,449.13 57.00,451.34C58.56,452.66 63.40,454.70 67.74,455.87C72.08,457.04 76.39,458.00 77.32,458.00C78.24,458.00 78.99,457.44 78.98,456.75C78.98,456.06 78.60,454.92 78.15,454.21C77.70,453.49 74.14,451.83 70.25,450.52C66.36,449.20 61.56,447.82 59.59,447.45C56.19,446.81 56.00,446.57 56.00,442.85C56.00,440.68 57.81,433.36 60.01,426.57C63.50,415.86 64.80,413.25 69.90,406.79C73.13,402.69 78.41,397.22 81.63,394.62C84.86,392.02 92.45,387.46 98.50,384.49C104.55,381.51 115.35,377.33 122.50,375.19C129.65,373.05 143.04,368.09 152.25,364.17C165.29,358.61 172.81,356.13 186.25,352.93C195.74,350.67 207.88,347.50 213.23,345.88C219.88,343.87 223.30,342.31 224.02,340.96C224.77,339.56 224.74,337.88 223.92,335.14C223.06,332.26 223.06,330.76 223.91,329.17C224.53,328.00 225.94,326.57 227.02,325.99C228.59,325.15 229.00,325.25 229.00,326.46C229.00,327.35 229.88,328.00 231.07,328.00C232.20,328.00 234.11,327.48 235.32,326.85C236.52,326.22 238.98,324.42 240.78,322.85C242.59,321.28 245.22,320.00 246.62,320.00C248.21,320.00 249.01,320.47 248.76,321.25C248.53,321.94 246.26,323.62 243.71,325.00C241.16,326.38 237.71,329.30 236.06,331.50C234.41,333.70 233.04,335.84 233.03,336.25C233.01,336.66 233.51,337.00 234.14,337.00C234.77,337.00 238.20,334.41 241.78,331.25C245.35,328.09 252.60,321.96 257.89,317.64C263.18,313.31 271.83,306.48 277.12,302.45C282.41,298.42 290.51,292.68 295.12,289.68C299.73,286.69 307.28,282.35 311.90,280.03C316.94,277.51 325.53,274.47 333.40,272.42C340.60,270.55 354.60,267.66 364.50,266.01C374.40,264.35 389.70,262.30 398.50,261.44C408.54,260.46 430.37,259.66 457.09,259.31C485.91,258.92 504.51,259.12 514.59,259.92C522.79,260.57 533.95,261.77 539.39,262.58C544.83,263.38 553.16,264.90 557.89,265.94C562.63,266.98 571.36,269.44 577.30,271.39C583.23,273.35 591.87,276.72 596.49,278.88C601.11,281.05 609.30,285.40 614.70,288.55C620.09,291.71 629.99,298.05 636.69,302.65C643.47,307.30 653.97,315.85 660.35,321.90C670.92,331.94 672.46,333.03 680.16,335.92C684.75,337.64 689.85,339.78 691.50,340.67C693.15,341.56 695.73,343.42 697.23,344.81C698.73,346.19 700.48,348.93 701.12,350.88C701.77,352.83 703.31,358.94 704.56,364.46C705.80,369.98 706.72,374.61 706.59,374.73C706.47,374.86 704.96,372.98 703.24,370.54C701.38,367.90 696.79,363.88 691.82,360.56C687.25,357.50 682.73,355.00 681.76,355.00C680.79,355.00 680.00,354.59 680.00,354.08C680.00,353.58 682.27,352.68 685.05,352.08C687.83,351.49 690.94,351.00 691.97,351.00C693.00,351.00 694.55,350.73 695.42,350.39C696.29,350.06 697.00,349.20 697.00,348.48C697.00,347.76 695.64,346.03 693.97,344.63C692.31,343.23 688.37,341.33 685.22,340.41C682.08,339.49 677.25,338.05 674.50,337.20C670.38,335.94 667.56,333.78 658.50,324.90C652.45,318.97 645.48,312.60 643.00,310.74C640.52,308.88 632.65,303.51 625.50,298.81C618.35,294.11 608.23,288.00 603.00,285.23C597.77,282.47 587.99,278.13 581.26,275.59C573.60,272.71 563.51,269.90 554.26,268.08C546.14,266.49 534.10,264.70 527.50,264.11C520.90,263.51 512.12,262.82 508.00,262.57C503.88,262.32 492.18,261.82 482.00,261.46C471.82,261.10 452.02,261.31 438.00,261.92C423.98,262.54 407.32,263.51 401.00,264.08C394.68,264.65 381.35,266.21 371.39,267.55C361.43,268.89 348.02,271.35 341.60,273.02C335.17,274.68 328.02,276.78 325.71,277.68C323.39,278.58 320.92,279.77 320.20,280.32C319.40,280.94 319.29,281.56 319.90,281.94C320.44,282.27 328.45,281.79 337.69,280.86C346.94,279.93 365.30,278.62 378.50,277.95C393.73,277.17 414.37,276.94 435.00,277.32C452.88,277.66 473.35,278.38 480.50,278.93C487.65,279.48 496.30,280.22 499.71,280.58C503.13,280.93 506.67,281.77 507.57,282.43C509.07,283.52 508.95,284.16 506.23,289.57C504.58,292.83 501.34,299.98 499.01,305.47C496.68,310.95 492.58,321.39 489.90,328.67C487.22,335.95 484.62,343.73 484.12,345.96C483.55,348.51 483.57,350.23 484.17,350.61C484.70,350.93 484.89,351.84 484.59,352.63C484.29,353.42 484.69,356.54 485.48,359.58C486.42,363.21 486.61,365.90 486.02,367.45C485.53,368.74 484.09,370.53 482.81,371.42C481.54,372.31 475.32,374.62 469.00,376.56C462.68,378.49 454.12,381.23 450.00,382.64C445.88,384.05 438.90,387.39 434.50,390.04C429.90,392.82 423.46,397.99 419.36,402.19C415.44,406.21 411.70,410.52 411.07,411.76C410.12,413.62 410.20,414.12 411.46,414.51C412.31,414.78 413.66,415.21 414.47,415.46C415.70,415.84 415.51,417.05 413.33,422.71C411.90,426.44 409.47,433.33 407.94,438.02C406.40,442.70 403.51,454.55 401.52,464.35C399.52,474.15 398.05,483.14 398.25,484.33C398.47,485.68 399.68,483.07 401.41,477.50C402.95,472.55 405.35,464.82 406.73,460.32C408.12,455.82 410.55,449.86 412.14,447.07C413.74,444.28 415.44,442.00 415.93,442.00C416.42,442.00 417.12,443.91 417.48,446.25C417.84,448.59 418.38,451.96 418.68,453.75C418.98,455.54 419.63,457.00 420.14,457.00C420.64,457.00 423.69,451.42 426.92,444.60C430.14,437.78 434.79,429.11 437.25,425.35C439.72,421.58 443.93,416.35 446.62,413.73C449.30,411.10 453.52,407.63 455.99,406.00C458.46,404.37 462.77,402.52 465.57,401.90C469.76,400.96 471.64,401.04 476.21,402.37C479.26,403.26 484.45,405.97 487.75,408.39C491.04,410.81 495.22,414.87 497.03,417.40C498.85,419.93 500.71,422.00 501.17,422.00C501.63,422.00 502.00,421.86 502.00,421.68C502.00,421.51 501.27,418.92 500.39,415.93C499.50,412.94 497.66,408.30 496.30,405.62C494.94,402.93 491.84,398.61 489.42,396.01C486.99,393.42 485.00,390.79 485.00,390.18C485.00,389.57 485.86,388.61 486.91,388.05C487.97,387.48 492.80,386.12 497.66,385.01C502.52,383.90 507.55,382.75 508.84,382.46C511.04,381.95 511.14,381.62 510.46,376.71C510.07,373.84 509.45,370.69 509.09,369.71C508.72,368.72 505.32,364.33 501.53,359.96C497.73,355.58 493.95,352.00 493.12,352.00C491.78,352.00 491.78,351.86 493.13,350.75C493.95,350.06 495.43,345.49 496.41,340.58C497.39,335.68 499.98,326.47 502.17,320.13C504.36,313.78 508.32,303.98 510.98,298.36C514.12,291.70 517.48,286.33 520.63,282.97C523.28,280.13 527.26,276.86 529.48,275.70C532.75,273.98 535.75,273.51 545.50,273.18C552.56,272.94 560.38,273.28 564.50,274.02C568.35,274.70 574.82,276.34 578.87,277.66C582.93,278.98 591.93,282.70 598.87,285.92C605.82,289.14 614.67,293.74 618.54,296.14C622.41,298.54 630.41,304.51 636.31,309.41C643.00,314.97 647.28,319.27 647.67,320.84C648.04,322.31 647.72,324.42 646.89,325.88C646.12,327.27 643.99,329.27 642.17,330.33C640.16,331.51 631.52,333.58 620.18,335.61C609.91,337.45 597.67,339.68 593.00,340.55C588.33,341.42 582.19,342.58 579.36,343.12C574.50,344.04 574.03,344.42 570.51,350.11C568.43,353.49 565.72,356.54 564.33,357.06C562.98,357.58 557.24,358.00 551.59,358.00C543.07,358.00 541.04,358.30 539.73,359.75C538.86,360.71 537.23,363.64 536.11,366.25C534.15,370.81 533.91,371.00 529.99,371.00C526.51,371.00 525.18,370.31 520.88,366.29C518.11,363.70 515.38,360.72 514.82,359.66C513.99,358.11 514.28,357.34 516.34,355.62C517.74,354.45 519.36,351.70 519.94,349.50C520.52,347.30 521.37,344.93 521.82,344.23C522.28,343.53 525.31,342.52 528.57,341.98C531.83,341.45 541.25,341.00 549.50,340.99C557.75,340.98 565.51,340.70 566.75,340.37C567.99,340.04 569.00,339.18 569.00,338.47C569.00,337.76 567.54,335.94 565.75,334.44C563.96,332.93 561.03,331.08 559.22,330.32C557.42,329.57 551.11,328.67 545.19,328.33C536.45,327.83 533.87,328.02 531.37,329.31C529.68,330.18 526.82,332.57 525.03,334.62C523.23,336.67 520.23,341.53 518.36,345.42C514.97,352.50 514.97,352.50 507.76,352.50C501.58,352.50 500.49,352.76 500.19,354.32C499.96,355.47 501.89,358.30 505.45,362.03C508.54,365.27 511.73,369.50 512.54,371.43C513.34,373.36 514.00,375.86 514.00,377.00C514.00,378.13 514.56,379.28 515.25,379.54C515.94,379.80 525.27,378.68 536.00,377.05C546.73,375.42 560.45,373.34 566.50,372.42C574.59,371.20 578.47,370.10 581.18,368.29C583.82,366.52 586.36,365.78 590.18,365.68C593.11,365.60 596.29,365.91 597.25,366.37C598.52,366.98 599.00,366.80 599.00,365.70C599.00,364.87 597.01,360.21 594.57,355.36C592.13,350.50 590.29,346.38 590.48,346.19C590.66,346.00 592.41,348.70 594.36,352.18C596.30,355.66 598.64,360.30 599.55,362.50C600.46,364.70 601.62,367.01 602.13,367.63C602.81,368.47 604.79,368.43 609.77,367.50C613.47,366.81 622.12,365.21 629.00,363.94C639.61,361.99 641.88,361.24 644.00,358.99C645.38,357.53 647.57,355.76 648.88,355.06C650.57,354.16 653.41,353.99 658.63,354.48C664.85,355.06 666.09,354.92 666.61,353.59C666.94,352.71 667.63,352.00 668.13,352.00C668.64,352.00 669.51,353.21 670.07,354.69C670.76,356.49 670.78,359.89 670.13,364.94C669.60,369.10 668.00,379.25 666.57,387.50C665.13,395.75 662.57,408.18 660.86,415.12C657.77,427.73 657.77,427.73 650.13,428.31C645.94,428.63 637.10,430.26 630.50,431.94C623.90,433.62 614.45,436.28 609.50,437.84C604.11,439.55 600.38,441.28 600.21,442.16C600.06,442.96 601.52,445.71 603.47,448.26C607.02,452.90 607.02,452.90 613.76,450.37C617.47,448.97 624.21,446.30 628.75,444.42C633.29,442.54 640.71,439.18 645.24,436.94C649.77,434.70 654.87,431.81 656.58,430.51C659.25,428.47 660.22,426.32 663.44,415.32C665.51,408.27 668.75,398.45 670.65,393.50C672.56,388.55 675.48,382.36 677.16,379.75C678.83,377.14 681.54,373.88 683.18,372.50C685.10,370.88 687.38,370.00 689.63,370.00C691.54,370.00 694.38,370.66 695.94,371.47C697.49,372.27 700.61,375.02 702.85,377.57C705.10,380.12 707.88,384.75 709.05,387.85C710.21,390.96 711.63,395.98 712.20,399.00C712.78,402.12 712.96,408.82 712.60,414.50C712.25,420.00 711.33,427.20 710.56,430.50C709.78,433.80 708.92,441.23 708.64,447.00C708.36,452.77 707.39,461.10 706.48,465.50C705.58,469.90 703.13,477.10 701.05,481.50C698.97,485.90 695.75,490.92 693.89,492.66C692.02,494.40 688.70,496.31 686.50,496.90C684.30,497.50 675.62,497.99 667.21,497.99C653.59,498.00 651.47,498.23 647.74,500.13C645.45,501.30 636.80,504.74 628.53,507.76C620.26,510.78 588.30,521.75 557.50,532.12C526.70,542.50 500.61,550.99 499.51,551.00C498.33,551.00 494.27,554.38 489.51,559.35C485.11,563.94 479.31,568.96 476.62,570.52C473.94,572.07 468.77,574.24 465.12,575.33C459.42,577.05 455.06,577.37 433.66,577.61C420.00,577.77 406.50,578.36 403.66,578.94C400.82,579.51 387.25,580.43 373.50,580.98C359.75,581.53 325.10,581.92 296.50,581.84zM471.32,559.98C473.41,559.99 476.11,559.50 477.32,558.88C478.52,558.26 480.74,556.60 482.25,555.19C483.76,553.78 485.00,552.02 485.00,551.28C485.00,550.54 485.62,549.70 486.37,549.41C487.13,549.12 488.86,546.77 490.22,544.19C491.59,541.61 493.66,536.80 494.84,533.50C496.02,530.20 497.60,524.76 498.36,521.40C499.26,517.48 499.42,514.72 498.83,513.65C498.32,512.74 497.22,512.00 496.39,512.00C495.46,512.00 493.31,515.46 490.78,521.00C488.53,525.95 486.40,530.00 486.05,530.00C485.70,530.00 484.15,527.41 482.60,524.25C481.05,521.09 476.96,514.45 473.50,509.50C470.04,504.55 466.04,499.41 464.61,498.08C463.11,496.68 462.00,496.19 462.00,496.92C462.00,497.62 464.43,501.86 467.40,506.35C470.37,510.83 473.56,516.30 474.49,518.50C475.41,520.70 478.16,527.87 480.58,534.42C483.01,540.98 485.00,547.19 485.00,548.22C485.00,549.81 484.49,549.99 481.52,549.44C478.44,548.86 477.92,549.07 477.09,551.27C476.55,552.68 475.03,554.03 473.54,554.40C472.10,554.76 469.14,554.58 466.96,553.99C463.00,552.92 463.00,552.92 462.90,529.21C462.85,516.17 462.49,504.38 462.11,503.00C461.72,501.62 460.76,500.50 459.95,500.50C458.98,500.50 458.24,502.16 457.70,505.50C457.27,508.25 456.02,515.42 454.92,521.43C453.83,527.44 452.08,534.30 451.02,536.68C449.93,539.16 448.44,541.00 447.52,541.00C446.31,541.00 446.15,541.42 446.88,542.78C447.41,543.76 450.32,547.14 453.35,550.30C456.38,553.45 460.81,556.92 463.18,558.00C465.56,559.07 469.22,559.97 471.32,559.98zM230.25,556.82C234.51,556.92 238.00,556.59 238.00,556.08C238.00,555.57 236.76,554.90 235.25,554.58C233.74,554.27 218.55,553.10 201.50,551.99C184.45,550.88 161.72,549.28 151.00,548.44C140.28,547.60 123.62,546.03 114.00,544.96C104.38,543.89 95.49,543.01 94.25,543.01C93.01,543.00 92.00,543.40 92.00,543.89C92.00,544.38 93.15,545.07 94.55,545.42C95.95,545.78 106.64,547.15 118.30,548.47C129.96,549.79 146.93,551.56 156.00,552.40C165.07,553.25 181.28,554.41 192.00,554.99C202.72,555.57 213.97,556.17 217.00,556.34C220.03,556.50 225.99,556.71 230.25,556.82zM253.50,556.00C255.15,556.00 273.82,555.55 295.00,555.01C316.18,554.47 342.50,553.54 353.50,552.95C364.50,552.37 379.72,551.24 387.32,550.45C394.92,549.66 404.82,548.07 409.32,546.92C413.82,545.77 418.06,544.37 418.74,543.80C419.42,543.24 419.73,542.37 419.43,541.89C419.13,541.40 415.20,540.95 410.69,540.88C406.19,540.82 401.18,540.48 399.57,540.13C396.84,539.54 396.32,538.61 391.99,526.50C389.44,519.35 385.91,510.48 384.15,506.80C382.39,503.11 379.57,498.73 377.90,497.05C375.89,495.04 373.85,494.00 371.92,494.00C370.32,494.00 369.00,494.37 369.00,494.81C369.00,495.26 370.32,496.60 371.94,497.80C373.56,499.00 376.32,502.06 378.08,504.61C379.83,507.16 383.70,514.70 386.67,521.37C389.69,528.14 391.95,534.60 391.79,535.99C391.60,537.60 390.44,539.02 388.50,539.98C386.65,540.90 381.71,541.61 375.65,541.83C365.80,542.19 365.80,542.19 366.48,539.10C366.85,537.39 366.86,534.65 366.50,533.00C366.14,531.35 365.54,530.01 365.17,530.02C364.80,530.03 363.24,531.83 361.69,534.01C360.14,536.20 356.90,539.15 354.48,540.57C350.72,542.77 348.26,543.28 337.79,544.01C331.03,544.49 312.20,545.20 295.95,545.59C273.73,546.12 265.11,545.99 261.21,545.05C258.36,544.37 254.87,542.90 253.47,541.80C251.02,539.87 250.98,539.68 252.54,537.31C253.43,535.94 253.94,534.61 253.68,534.34C253.41,534.08 250.56,534.35 247.35,534.95C244.13,535.55 236.10,536.32 229.50,536.64C222.90,536.97 205.35,536.73 190.50,536.11C175.65,535.49 157.88,534.81 151.00,534.61C144.12,534.40 140.30,534.41 142.50,534.62C144.70,534.83 158.20,535.91 172.50,537.02C186.80,538.13 202.55,539.50 207.50,540.07C212.45,540.64 218.97,541.58 222.00,542.17C225.03,542.76 230.01,544.50 233.09,546.05C236.16,547.60 241.34,550.47 244.59,552.43C247.87,554.41 251.84,556.00 253.50,556.00zM79.60,538.89C80.21,538.95 85.83,536.41 92.10,533.25C103.50,527.50 103.50,527.50 119.00,527.51C127.53,527.52 148.68,528.29 166.00,529.24C183.32,530.19 202.22,531.22 208.00,531.52C213.78,531.82 221.81,531.64 225.85,531.12C231.26,530.41 233.87,529.55 235.73,527.83C237.13,526.55 239.27,523.25 240.50,520.50C241.72,517.75 245.76,506.27 249.48,495.00C253.20,483.73 258.22,469.39 260.63,463.13C263.04,456.88 265.28,450.09 265.61,448.03C266.00,445.58 265.68,443.27 264.65,441.30C263.80,439.65 261.55,436.94 259.66,435.27C256.88,432.84 254.48,431.94 247.36,430.66C242.49,429.79 226.35,428.18 211.50,427.08C196.65,425.98 172.12,424.61 157.00,424.04C140.13,423.40 125.18,423.34 118.31,423.88C110.27,424.51 105.86,425.37 102.64,426.93C100.18,428.12 96.35,431.07 94.13,433.47C91.45,436.38 89.55,439.75 88.44,443.55C87.14,448.02 86.93,451.36 87.44,458.88C87.80,464.17 89.00,475.48 90.09,484.00C91.19,492.52 92.76,502.42 93.58,505.99C94.41,509.56 95.71,513.43 96.48,514.60C97.29,515.85 99.84,517.23 102.63,517.93C105.26,518.59 121.37,520.42 138.45,521.99C155.53,523.56 180.52,525.38 193.99,526.04C207.46,526.70 221.52,526.96 225.24,526.61C229.37,526.23 232.00,526.36 232.00,526.95C232.00,527.49 230.09,528.45 227.75,529.09C224.80,529.90 217.99,530.06 205.50,529.61C195.60,529.25 175.57,528.07 161.00,526.98C146.43,525.89 128.20,524.56 120.50,524.02C112.80,523.49 104.25,522.78 101.50,522.45C96.79,521.88 96.10,522.11 89.60,526.42C85.81,528.94 81.53,531.00 80.10,531.00C78.67,531.00 72.87,530.10 67.22,529.00C61.57,527.90 55.30,526.32 53.29,525.48C50.38,524.26 49.48,524.21 48.84,525.23C48.40,525.93 48.17,526.92 48.33,527.44C48.49,527.96 49.81,529.26 51.26,530.35C52.71,531.43 59.43,533.77 66.20,535.55C72.96,537.33 79.00,538.83 79.60,538.89zM226.00,523.18C221.32,523.43 210.07,523.30 201.00,522.88C191.93,522.47 175.72,521.64 165.00,521.03C154.28,520.42 138.07,519.26 129.00,518.45C119.92,517.65 110.58,516.71 108.24,516.38C105.89,516.04 102.89,514.92 101.56,513.87C100.24,512.83 98.45,509.84 97.60,507.24C96.74,504.63 95.10,496.88 93.95,490.00C92.80,483.12 91.60,470.42 91.29,461.76C90.80,448.30 90.97,445.37 92.46,441.47C93.41,438.97 95.33,435.57 96.72,433.92C98.10,432.28 100.52,430.27 102.08,429.46C103.65,428.65 109.46,427.52 115.00,426.95C121.97,426.24 131.94,426.24 147.33,426.97C159.58,427.55 177.45,428.45 187.05,428.98C196.65,429.50 210.80,430.40 218.50,430.98C226.20,431.56 236.32,432.52 241.00,433.12C245.68,433.73 250.85,434.78 252.50,435.46C254.15,436.14 256.96,437.93 258.75,439.44C261.41,441.68 262.00,442.90 262.00,446.13C262.00,448.30 260.38,454.22 258.40,459.29C256.42,464.35 253.91,470.98 252.82,474.00C251.74,477.02 248.64,487.04 245.94,496.25C243.24,505.47 240.16,514.72 239.09,516.82C238.02,518.92 236.55,521.11 235.82,521.68C235.10,522.26 230.68,522.93 226.00,523.18zM439.70,523.63C439.96,523.37 439.69,519.21 439.10,514.37C438.50,509.54 438.35,505.30 438.76,504.95C439.17,504.61 441.56,503.57 444.09,502.64C446.61,501.72 449.53,500.33 450.59,499.56C451.64,498.79 452.16,497.83 451.75,497.42C451.34,497.01 448.23,497.44 444.84,498.38C439.92,499.75 438.52,499.84 437.89,498.82C437.46,498.12 437.29,495.73 437.53,493.52C437.77,491.31 438.24,485.56 438.57,480.75C438.96,475.13 439.59,472.00 440.34,472.00C440.98,472.00 444.31,473.33 447.75,474.96C451.19,476.58 454.00,477.58 454.00,477.16C454.00,476.75 452.31,474.82 450.25,472.88C448.19,470.93 444.60,467.89 442.28,466.12C438.07,462.88 438.07,462.88 437.58,465.19C437.31,466.46 436.62,469.88 436.05,472.80C435.47,475.71 435.00,483.36 435.01,489.80C435.01,496.23 435.47,504.43 436.02,508.00C436.57,511.57 437.52,516.66 438.12,519.30C438.73,521.95 439.44,523.90 439.70,523.63zM510.67,514.87C513.33,514.38 521.58,512.38 529.00,510.44C536.42,508.50 550.60,504.42 560.50,501.39C570.40,498.35 594.92,490.47 615.00,483.87C635.08,477.27 652.56,471.18 653.86,470.34C655.31,469.40 655.86,468.46 655.29,467.89C654.78,467.38 650.95,466.85 646.78,466.73C642.58,466.60 639.45,466.10 639.76,465.60C640.08,465.07 639.72,465.05 638.90,465.55C638.13,466.03 635.70,467.61 633.50,469.06C631.30,470.52 628.60,471.95 627.50,472.26C626.40,472.56 621.00,474.38 615.50,476.31C610.00,478.23 591.10,484.16 573.50,489.49C555.90,494.81 534.08,501.40 525.00,504.13C515.92,506.87 507.65,509.94 506.61,510.97C505.57,511.99 504.98,513.49 505.29,514.30C505.74,515.49 506.76,515.60 510.67,514.87zM396.82,504.51C397.06,504.27 395.70,500.79 393.79,496.78C391.89,492.76 388.80,487.95 386.92,486.08C385.05,484.21 381.51,481.79 379.06,480.70C375.28,479.03 373.27,478.82 365.92,479.34C361.15,479.68 352.58,480.66 346.88,481.52C341.17,482.37 327.27,485.30 316.00,488.02C304.73,490.73 288.07,494.14 279.00,495.60C269.93,497.05 262.08,498.62 261.58,499.09C261.06,499.57 262.82,499.74 265.58,499.48C268.28,499.23 277.02,498.33 285.00,497.50C292.98,496.67 311.88,494.65 327.00,493.02C342.12,491.40 358.65,489.66 363.72,489.16C368.79,488.66 374.75,488.59 376.96,488.99C379.18,489.40 382.79,490.92 384.98,492.37C387.17,493.82 390.64,497.24 392.68,499.98C394.72,502.71 396.58,504.75 396.82,504.51zM498.90,503.96C500.07,503.99 500.19,501.72 499.62,490.30C499.24,482.76 498.71,476.38 498.44,476.11C498.17,475.84 495.60,476.66 492.73,477.92C489.85,479.18 486.49,480.45 485.25,480.72C484.01,481.00 483.00,481.63 483.00,482.12C483.00,482.60 483.90,483.00 485.00,483.00C486.15,483.00 487.00,483.67 487.00,484.57C487.00,485.43 486.53,487.00 485.96,488.07C485.11,489.67 483.83,490.00 478.52,490.00C475.00,490.00 471.87,490.40 471.57,490.89C471.27,491.38 473.02,492.08 475.46,492.44C477.90,492.81 482.51,494.42 485.70,496.03C488.89,497.64 492.85,500.08 494.50,501.44C496.15,502.81 498.13,503.94 498.90,503.96zM469.05,484.00C470.17,484.00 472.20,482.90 473.55,481.55C474.90,480.20 476.00,478.37 476.00,477.49C476.00,476.48 475.54,476.16 474.75,476.62C474.06,477.03 472.04,478.46 470.25,479.80C468.46,481.14 467.00,482.63 467.00,483.12C467.00,483.60 467.92,484.00 469.05,484.00zM692.11,484.00C694.36,484.00 695.51,483.15 697.49,480.02C698.87,477.83 700.00,474.98 700.00,473.69C700.00,472.40 698.81,470.26 697.36,468.92C695.90,467.59 692.98,463.84 690.85,460.58C688.73,457.33 686.02,452.02 684.84,448.79C683.66,445.55 682.35,443.26 681.93,443.70C681.52,444.14 681.07,445.40 680.94,446.50C680.81,447.60 681.45,450.19 682.36,452.25C683.28,454.31 684.65,461.63 685.41,468.52C686.17,475.40 687.34,481.70 688.02,482.52C688.69,483.33 690.53,484.00 692.11,484.00zM694.00,479.97C693.73,479.97 692.38,479.40 691.00,478.71C688.66,477.53 688.48,476.89 688.25,468.97C687.99,460.50 687.99,460.50 689.97,463.00C691.05,464.38 693.11,468.38 694.53,471.91C696.58,476.99 696.85,478.48 695.81,479.14C695.09,479.60 694.27,479.97 694.00,479.97zM517.92,479.00C518.46,479.00 521.29,478.50 524.20,477.89C527.12,477.29 538.27,474.39 549.00,471.47C559.73,468.54 575.22,464.08 583.43,461.57C591.65,459.05 599.41,456.31 600.68,455.47C602.10,454.54 603.00,452.97 603.00,451.40C603.00,449.90 601.77,447.61 600.00,445.84C597.44,443.29 596.51,442.95 593.75,443.53C591.96,443.91 580.54,447.49 568.37,451.49C556.20,455.49 542.03,460.78 536.87,463.25C531.72,465.72 525.58,469.41 523.24,471.46C520.89,473.50 518.52,476.04 517.95,477.09C517.29,478.32 517.28,479.00 517.92,479.00zM259.30,476.00C259.47,476.00 261.98,472.74 264.87,468.75C267.77,464.76 273.73,455.93 278.11,449.12C282.49,442.32 285.86,436.53 285.60,436.26C285.33,436.00 281.49,436.10 277.05,436.50C272.62,436.89 268.67,437.72 268.27,438.35C267.88,438.98 267.69,442.25 267.86,445.61C268.13,450.91 267.56,453.28 263.58,463.45C261.06,469.89 259.00,475.36 259.00,475.59C259.00,475.81 259.14,476.00 259.30,476.00zM477.47,474.00C478.10,474.00 479.99,472.54 481.68,470.75C483.36,468.96 486.38,465.08 488.39,462.12C490.39,459.16 492.30,455.65 492.63,454.32C492.97,452.99 492.92,451.59 492.52,451.20C492.12,450.82 490.38,452.14 488.65,454.14C486.92,456.14 483.15,461.15 480.29,465.26C477.42,469.37 475.36,473.02 475.70,473.37C476.05,473.72 476.85,474.00 477.47,474.00zM461.07,469.93C461.56,469.14 461.97,462.43 461.98,455.00C461.98,447.57 461.55,438.81 461.01,435.52C460.24,430.82 460.32,429.25 461.38,428.19C462.12,427.45 464.48,426.61 466.63,426.32C468.78,426.03 472.44,426.31 474.77,426.94C478.43,427.92 479.00,428.45 479.00,430.80C479.00,432.29 477.20,440.65 475.00,449.38C472.80,458.10 471.00,465.44 471.00,465.68C471.00,465.92 471.46,465.83 472.03,465.48C472.59,465.13 474.78,461.40 476.89,457.17C478.99,452.95 481.99,445.89 483.54,441.48C486.28,433.67 486.31,433.40 484.58,430.76C483.60,429.27 480.36,426.86 477.37,425.39C472.95,423.23 471.10,422.85 467.42,423.36C464.93,423.70 460.91,425.14 458.48,426.57C456.04,427.99 452.52,431.26 450.65,433.83C448.78,436.40 446.12,440.75 444.75,443.50C443.38,446.25 441.97,449.62 441.61,451.00C441.26,452.38 442.03,451.24 443.33,448.48C444.62,445.72 446.47,442.68 447.42,441.72C448.38,440.76 449.54,440.22 450.00,440.50C450.46,440.79 451.96,444.50 453.33,448.76C454.70,453.02 456.80,459.84 457.99,463.93C459.55,469.24 460.42,470.95 461.07,469.93zM283.25,468.66C289.44,468.31 302.60,467.14 312.50,466.06C322.40,464.99 335.90,463.82 342.50,463.47C349.10,463.12 360.29,462.18 367.36,461.39C374.43,460.60 381.01,459.53 381.98,459.01C382.96,458.49 385.12,455.91 386.80,453.28C388.48,450.65 393.03,441.46 396.92,432.85C400.82,424.24 404.00,416.65 404.00,415.99C404.00,415.33 406.94,411.26 410.54,406.95C414.14,402.64 421.11,395.85 426.04,391.86C430.97,387.87 435.00,384.48 435.00,384.33C435.00,384.17 433.90,384.47 432.56,384.98C431.22,385.49 427.73,387.10 424.81,388.57C421.89,390.04 417.48,392.67 415.00,394.43C412.52,396.19 408.36,398.88 405.75,400.41C403.14,401.94 401.00,402.70 401.00,402.11C401.00,401.52 403.59,399.00 406.75,396.51C409.91,394.03 415.43,390.46 419.00,388.59C422.57,386.72 431.12,383.18 438.00,380.73C444.88,378.27 457.15,374.55 465.27,372.47C478.77,369.00 480.10,368.46 480.67,366.18C481.01,364.81 480.80,361.00 480.18,357.71C479.57,354.43 478.83,351.50 478.54,351.21C478.25,350.91 473.62,351.23 468.25,351.92C460.64,352.89 449.51,352.92 417.50,352.08C394.95,351.49 358.05,350.54 335.50,349.98C312.95,349.42 286.18,348.52 276.00,347.98C265.82,347.45 250.30,346.51 241.50,345.90C225.50,344.80 225.50,344.80 206.94,349.88C196.73,352.68 181.65,357.24 173.44,360.02C165.22,362.80 153.10,367.71 146.50,370.92C139.90,374.14 131.03,379.10 126.80,381.93C122.56,384.76 116.71,389.72 113.79,392.94C110.88,396.16 106.92,401.99 105.00,405.89C103.07,409.79 101.16,412.99 100.75,412.99C100.34,413.00 100.01,411.99 100.02,410.75C100.03,409.51 100.87,406.68 101.88,404.46C102.89,402.24 106.24,397.70 109.33,394.36C112.42,391.02 118.10,385.89 121.97,382.95C125.84,380.01 129.00,377.25 129.00,376.81C129.00,376.38 125.96,377.16 122.25,378.55C118.54,379.94 110.33,383.42 104.00,386.27C97.36,389.27 89.28,393.89 84.87,397.22C80.66,400.39 75.80,404.60 74.06,406.58C72.32,408.57 71.07,410.70 71.28,411.33C71.49,411.97 73.10,413.33 74.87,414.36C76.64,415.39 82.86,418.18 88.69,420.56C99.31,424.88 99.31,424.88 103.40,422.72C107.06,420.79 109.42,420.51 125.50,420.16C135.40,419.95 154.07,420.29 167.00,420.92C179.93,421.55 200.40,422.75 212.50,423.58C224.60,424.42 239.00,425.75 244.50,426.54C251.49,427.54 256.24,428.87 260.27,430.93C266.04,433.87 266.04,433.87 275.27,432.38C280.35,431.56 293.50,429.12 304.50,426.97C315.50,424.82 331.48,421.92 340.00,420.54C348.52,419.16 362.59,417.12 371.26,416.02C379.93,414.91 390.42,413.96 394.57,413.89C398.72,413.83 402.36,414.03 402.67,414.33C402.97,414.64 402.24,416.26 401.05,417.93C399.86,419.61 396.64,425.77 393.90,431.62C391.16,437.47 387.60,444.17 385.99,446.51C384.39,448.85 382.27,451.09 381.28,451.49C380.30,451.89 377.25,452.81 374.50,453.53C371.75,454.24 365.45,455.84 360.50,457.07C351.86,459.21 351.24,459.24 345.00,457.71C341.43,456.83 337.08,455.84 335.35,455.50C333.55,455.15 326.75,455.94 319.35,457.36C312.28,458.73 300.20,460.82 292.50,462.02C284.80,463.22 277.04,464.81 275.25,465.55C273.46,466.29 272.00,467.44 272.00,468.10C272.00,469.01 274.79,469.15 283.25,468.66zM701.89,464.45C702.39,463.93 703.26,461.25 703.83,458.50C704.69,454.42 704.60,453.07 703.36,451.16C702.52,449.87 699.39,447.70 696.42,446.33C693.44,444.97 690.21,444.01 689.25,444.19C687.97,444.44 688.56,445.17 691.50,446.92C693.70,448.24 696.74,450.46 698.25,451.85C700.61,454.02 701.00,455.15 701.00,459.89C701.00,463.17 701.36,465.02 701.89,464.45zM185.00,462.93C185.82,462.97 187.91,462.13 189.63,461.08C191.36,460.03 193.96,457.60 195.42,455.69C196.89,453.77 198.48,450.82 198.97,449.12C199.50,447.26 199.46,444.64 198.88,442.52C198.24,440.22 196.64,438.15 194.22,436.51C192.19,435.13 189.64,434.00 188.55,434.00C187.46,434.00 184.64,434.73 182.29,435.63C178.64,437.03 177.78,437.06 176.36,435.88C175.32,435.02 172.10,434.47 167.85,434.43C164.08,434.39 161.00,434.55 161.00,434.78C161.00,435.02 162.12,436.10 163.50,437.18C165.43,438.70 166.00,440.07 166.00,443.20C166.00,446.52 165.75,447.04 164.62,446.10C163.52,445.19 163.14,445.46 162.76,447.46C162.50,448.84 162.86,450.78 163.56,451.78C164.26,452.78 164.98,454.92 165.16,456.54C165.40,458.58 166.34,459.89 168.25,460.79C170.19,461.72 171.50,461.81 172.75,461.08C174.34,460.16 174.30,460.06 172.37,460.03C171.20,460.01 169.66,459.29 168.94,458.42C167.90,457.17 167.86,455.95 168.78,452.54C169.56,449.61 169.62,447.16 168.96,444.88C168.43,443.03 168.00,440.74 168.00,439.79C168.00,438.85 168.95,437.56 170.12,436.94C171.79,436.04 173.05,436.17 176.10,437.54C179.03,438.87 180.28,439.01 181.33,438.14C182.08,437.52 183.86,436.91 185.27,436.79C186.68,436.67 188.96,437.18 190.33,437.91C191.69,438.64 193.59,440.69 194.55,442.46C195.75,444.68 196.08,446.74 195.64,449.12C195.28,451.01 193.59,454.25 191.88,456.33C189.17,459.61 188.29,460.07 185.13,459.80C181.67,459.51 181.51,459.33 181.65,456.00C181.72,454.07 181.95,450.30 182.15,447.61C182.34,444.87 182.05,442.55 181.49,442.35C180.93,442.15 179.69,444.19 178.74,446.88C177.78,449.57 177.00,453.08 177.00,454.68C177.00,456.29 176.44,458.23 175.75,459.00C174.69,460.19 174.76,460.21 176.24,459.09C177.71,457.97 178.08,458.03 178.63,459.47C178.99,460.40 180.23,461.55 181.39,462.02C182.55,462.49 184.18,462.90 185.00,462.93zM157.36,460.71C157.92,460.53 158.57,459.78 158.82,459.05C159.07,458.28 158.80,458.01 158.17,458.39C157.58,458.76 156.31,457.88 155.36,456.43C153.88,454.17 153.79,453.04 154.72,448.61C155.32,445.76 155.57,442.09 155.27,440.46C154.98,438.83 153.82,436.49 152.70,435.25C151.57,434.01 149.69,433.00 148.51,433.00C147.33,433.00 144.51,434.58 142.26,436.51C139.87,438.56 137.45,441.86 136.47,444.43C135.08,448.08 134.99,449.45 135.97,452.40C136.62,454.36 138.30,456.88 139.71,457.98C141.12,459.09 143.11,460.00 144.13,460.00C145.16,460.00 146.00,459.55 146.00,459.00C146.00,458.45 145.36,458.00 144.57,458.00C143.79,458.00 142.21,456.81 141.07,455.37C139.57,453.45 139.00,451.28 139.00,447.44C139.00,443.21 139.52,441.54 141.59,439.08C143.30,437.05 145.08,436.01 146.84,436.02C148.30,436.02 150.12,436.43 150.89,436.91C151.85,437.52 152.05,438.67 151.56,440.64C151.17,442.21 150.54,445.98 150.15,449.00C149.77,452.02 149.10,455.06 148.67,455.75C148.16,456.56 148.46,457.00 149.53,457.00C150.44,457.00 152.34,457.91 153.76,459.03C155.18,460.14 156.80,460.90 157.36,460.71zM677.04,460.48C677.48,460.20 678.14,458.52 678.50,456.74C678.86,454.96 679.37,452.71 679.64,451.75C679.96,450.61 679.58,450.00 678.54,450.00C677.67,450.00 676.57,451.01 676.10,452.25C675.64,453.49 675.47,455.96 675.74,457.74C676.01,459.52 676.59,460.75 677.04,460.48zM287.75,453.98C289.26,453.97 299.05,452.81 309.50,451.39C322.43,449.64 336.16,448.57 352.50,448.05C367.79,447.56 377.41,446.85 379.00,446.07C380.38,445.40 383.13,442.29 385.12,439.16C387.10,436.03 389.90,431.17 391.32,428.35C392.74,425.54 393.64,422.98 393.32,422.65C392.99,422.32 392.39,422.26 391.99,422.51C391.58,422.76 390.04,425.45 388.55,428.49C387.06,431.53 384.34,435.16 382.51,436.56C379.46,438.89 377.93,439.18 364.47,440.04C356.38,440.55 349.17,440.63 348.43,440.22C347.36,439.62 347.48,438.64 349.05,435.13C350.12,432.74 351.00,430.16 351.00,429.39C351.00,428.63 350.75,428.00 350.43,428.00C350.12,428.00 349.04,428.44 348.04,428.98C347.03,429.52 344.38,432.85 342.15,436.39C338.56,442.06 337.65,442.88 334.29,443.39C332.21,443.71 324.43,444.71 317.00,445.61C309.57,446.52 300.46,448.02 296.75,448.95C293.04,449.88 290.00,450.34 290.00,449.97C290.00,449.59 292.74,446.30 296.09,442.64C301.60,436.63 301.95,436.00 299.76,436.00C298.44,436.00 296.45,437.01 295.34,438.25C294.24,439.49 291.46,443.36 289.17,446.86C286.88,450.36 285.00,453.40 285.00,453.61C285.00,453.83 286.24,453.99 287.75,453.98zM81.80,445.74C82.51,445.15 82.96,443.76 82.80,442.63C82.58,441.15 80.80,439.94 76.30,438.22C72.84,436.91 69.85,435.11 69.55,434.16C69.25,433.22 69.46,430.89 70.00,428.98C70.55,427.07 71.00,424.02 71.00,422.19C71.00,419.31 70.70,418.90 68.75,419.18C66.97,419.43 66.03,420.86 64.26,426.00C63.03,429.57 62.13,434.28 62.26,436.45C62.50,440.40 62.50,440.40 71.50,443.60C78.05,445.93 80.85,446.51 81.80,445.74zM314.81,441.00C316.41,441.00 318.80,440.16 320.12,439.14C321.43,438.12 323.95,437.07 325.73,436.82C327.50,436.56 329.11,436.82 329.30,437.39C329.53,438.08 330.98,438.02 333.72,437.20C335.96,436.53 338.07,435.26 338.41,434.38C338.93,433.02 338.45,432.88 335.26,433.42C333.19,433.77 329.09,434.02 326.14,433.97C321.85,433.89 320.01,434.41 316.85,436.60C314.68,438.10 312.68,439.71 312.40,440.17C312.11,440.62 313.20,441.00 314.81,441.00zM82.77,437.00C85.58,437.00 86.31,436.49 87.46,433.75C88.34,431.67 88.49,430.09 87.88,429.36C87.36,428.73 84.64,427.23 81.83,426.02C77.69,424.24 76.56,424.08 75.88,425.16C75.41,425.90 75.02,428.16 75.02,430.19C75.00,432.89 75.60,434.31 77.22,435.44C78.44,436.30 80.94,437.00 82.77,437.00zM699.67,436.92C700.31,436.96 701.55,436.73 702.42,436.39C703.29,436.06 704.00,434.93 704.00,433.89C704.00,432.85 703.35,432.00 702.55,432.00C701.75,432.00 699.95,432.52 698.55,433.16C697.15,433.80 696.00,434.66 696.00,435.08C696.00,435.49 696.56,436.06 697.25,436.34C697.94,436.62 699.03,436.88 699.67,436.92zM686.83,435.00C687.89,435.00 691.22,431.84 694.83,427.39C698.22,423.21 701.00,419.39 701.00,418.89C701.00,418.40 700.66,418.01 700.25,418.02C699.84,418.02 699.02,418.36 698.43,418.77C697.84,419.17 695.46,422.10 693.13,425.27C690.81,428.44 688.03,431.59 686.95,432.26C685.88,432.93 685.00,433.82 685.00,434.24C685.00,434.66 685.82,435.00 686.83,435.00zM678.21,427.00C678.64,424.52 679.70,418.90 680.57,414.50C681.44,410.10 683.21,404.14 684.52,401.25C686.01,397.94 687.84,395.57 689.48,394.83C690.96,394.15 691.95,392.97 691.78,392.08C691.61,391.23 690.66,390.37 689.66,390.17C688.67,389.98 686.93,390.65 685.80,391.66C684.67,392.67 682.97,395.30 682.03,397.50C681.09,399.70 679.83,403.52 679.21,406.00C678.60,408.48 677.59,414.65 676.98,419.73C676.36,424.81 676.21,429.53 676.64,430.23C677.14,431.03 677.72,429.83 678.21,427.00zM506.54,400.00C507.88,400.00 509.38,399.15 509.96,398.07C510.53,397.00 511.00,395.07 511.00,393.77C511.00,392.46 510.46,390.86 509.80,390.20C509.14,389.54 507.79,389.00 506.80,389.00C505.81,389.00 504.10,389.90 503.00,391.00C501.90,392.10 501.00,393.87 501.00,394.93C501.00,395.99 501.71,397.56 502.57,398.43C503.44,399.29 505.22,400.00 506.54,400.00zM269.25,340.02C271.04,340.03 285.48,339.50 301.34,338.83C330.18,337.61 330.18,337.61 336.14,325.71C339.42,319.17 345.68,307.98 350.05,300.85C354.42,293.72 358.00,287.46 358.00,286.94C358.00,286.42 356.48,286.00 354.61,286.00C352.75,286.00 347.46,287.09 342.86,288.43C338.26,289.76 331.42,292.24 327.65,293.93C323.88,295.62 316.95,299.52 312.25,302.58C307.55,305.64 298.71,311.89 292.60,316.47C286.50,321.04 278.01,327.77 273.75,331.42C269.49,335.07 266.00,338.50 266.00,339.03C266.00,339.56 267.46,340.01 269.25,340.02zM463.24,339.00C468.32,339.00 469.10,338.76 468.82,337.25C468.61,336.10 466.28,334.74 462.00,333.29C458.43,332.07 453.67,331.05 451.43,331.04C449.19,331.02 445.08,331.68 442.28,332.51C439.49,333.34 436.16,334.86 434.90,335.88C432.63,337.72 432.73,337.74 444.49,337.89C451.03,337.97 456.59,338.26 456.85,338.52C457.12,338.78 459.99,339.00 463.24,339.00zM256.92,335.54C258.60,334.67 261.44,332.69 263.24,331.13C265.03,329.58 274.89,321.82 285.15,313.90C295.40,305.98 306.31,297.59 309.40,295.26C312.48,292.92 315.00,290.56 315.00,290.01C315.00,289.45 314.40,289.00 313.66,289.00C312.92,289.00 309.63,290.34 306.35,291.98C303.07,293.62 294.44,299.73 287.17,305.55C279.91,311.37 269.90,320.00 264.93,324.73C259.96,329.46 255.44,334.18 254.88,335.22C253.91,337.04 253.99,337.06 256.92,335.54zM519.71,337.00C519.96,337.00 522.51,334.52 525.37,331.50C530.57,326.00 530.57,326.00 537.54,326.07C541.37,326.11 548.10,326.49 552.50,326.91C556.90,327.33 560.68,327.53 560.91,327.34C561.14,327.16 560.76,324.42 560.07,321.26C559.38,318.09 557.00,308.75 554.78,300.50C552.56,292.25 550.31,284.66 549.77,283.63C548.96,282.07 548.06,281.86 544.41,282.36C542.00,282.69 537.37,284.30 534.13,285.93C530.48,287.77 526.34,291.04 523.23,294.53C520.48,297.62 516.78,303.00 515.01,306.48C511.80,312.81 511.80,312.81 514.47,322.16C515.93,327.30 517.61,332.74 518.19,334.25C518.77,335.76 519.45,337.00 519.71,337.00zM374.26,334.00C376.05,334.00 378.95,333.59 380.71,333.08C382.47,332.58 385.73,330.70 387.96,328.92C390.18,327.13 392.00,325.07 392.00,324.33C392.00,323.53 390.84,323.00 389.07,323.00C387.45,323.00 384.91,322.54 383.42,321.97C380.71,320.94 380.71,320.94 381.29,311.97C381.62,306.89 381.48,303.00 380.97,303.00C380.48,303.00 379.65,303.79 379.15,304.75C378.64,305.71 376.60,312.00 374.61,318.73C372.62,325.45 371.00,331.64 371.00,332.48C371.00,333.53 372.01,334.00 374.26,334.00zM592.59,333.00C594.43,333.00 600.79,332.29 606.72,331.42C612.65,330.55 618.11,329.25 618.85,328.53C619.99,327.43 619.36,325.77 615.01,318.36C612.15,313.49 607.32,306.22 604.27,302.21C599.32,295.70 597.87,294.52 590.62,291.05C586.15,288.91 579.23,286.39 575.22,285.44C571.22,284.49 567.69,283.98 567.36,284.30C567.04,284.63 570.27,292.90 574.54,302.70C578.80,312.49 583.41,322.75 584.77,325.50C586.13,328.25 587.69,331.06 588.24,331.75C588.79,332.44 590.75,333.00 592.59,333.00zM574.26,327.50C574.94,326.29 574.86,323.92 574.02,320.11C573.33,317.02 570.53,308.20 567.78,300.50C565.03,292.80 562.14,285.26 561.36,283.75C560.58,282.24 559.51,281.00 558.97,281.00C558.44,281.00 558.00,281.78 558.00,282.74C558.00,283.70 560.74,292.58 564.09,302.49C567.44,312.40 570.88,322.47 571.73,324.89C573.04,328.61 573.42,329.00 574.26,327.50zM629.28,324.81C631.76,324.57 632.57,323.97 632.83,322.21C633.03,320.74 631.77,318.11 629.33,314.89C627.22,312.13 623.25,308.15 620.50,306.06C617.75,303.96 614.49,301.73 613.25,301.09C612.01,300.45 611.00,300.33 611.00,300.81C611.00,301.29 612.75,304.35 614.89,307.59C617.02,310.84 620.41,316.12 622.41,319.31C625.76,324.65 626.32,325.10 629.28,324.81zM428.74,321.13C429.71,320.61 431.45,319.13 432.62,317.84C433.78,316.55 435.52,314.26 436.49,312.75C438.24,309.99 438.24,309.99 431.48,302.44C427.76,298.28 424.39,295.25 424.00,295.69C423.60,296.14 423.92,301.68 424.70,308.00C425.48,314.32 426.31,320.08 426.54,320.79C426.84,321.70 427.49,321.81 428.74,321.13zM410.62,293.30C411.24,293.07 412.55,291.10 413.53,288.93C414.51,286.76 415.04,284.71 414.70,284.37C414.37,284.03 413.06,284.02 411.80,284.35C410.53,284.67 407.72,286.40 405.56,288.20C401.61,291.47 401.61,291.47 405.56,292.59C407.72,293.21 410.01,293.53 410.62,293.30zM382.87,291.00C383.89,291.00 385.92,290.07 387.37,288.93C388.81,287.79 390.00,286.27 390.00,285.55C390.00,284.83 389.27,283.64 388.39,282.91C386.99,281.75 386.38,282.01 383.89,284.80C382.30,286.58 381.00,288.70 381.00,289.52C381.00,290.33 381.84,291.00 382.87,291.00z" />

</svg>